<svg xmlns="http://www.w3.org/2000/svg" xmlns:xlink="http://www.w3.org/1999/xlink" width="500" zoomAndPan="magnify" viewBox="0 0 375 374.999991" height="500" preserveAspectRatio="xMidYMid meet" version="1.0"><defs><g/><clipPath id="bac969c41c"><path d="M 127.507812 92.964844 L 185.144531 92.964844 L 185.144531 208.339844 L 127.507812 208.339844 Z M 127.507812 92.964844 " clip-rule="nonzero"/></clipPath></defs><g clip-path="url(#bac969c41c)"><path fill="#fafafa" d="M 161.238281 146.996094 C 160.378906 146.699219 159.4375 145.808594 159.347656 145.191406 C 160.023438 145.835938 160.632812 146.417969 161.238281 146.996094 Z M 151.976562 145.34375 C 153.730469 144.757812 155.5 144.9375 157.28125 144.71875 C 157.171875 145.082031 157.085938 145.371094 156.996094 145.667969 C 156.820312 145.695312 156.652344 145.730469 156.484375 145.742188 C 155.425781 145.835938 154.371094 145.957031 153.3125 146.003906 C 152.832031 146.023438 152.296875 146.015625 151.976562 145.34375 Z M 158.289062 139.445312 C 158.289062 139.804688 158.273438 140.167969 158.292969 140.53125 C 158.3125 140.914062 158.160156 141.167969 157.835938 141.296875 C 157.640625 141.375 157.445312 141.464844 157.246094 141.480469 C 156.324219 141.550781 155.398438 141.628906 154.472656 141.636719 C 154.105469 141.640625 153.683594 141.601562 153.429688 141.207031 C 153.972656 140.378906 157.199219 139.417969 158.289062 139.445312 Z M 158.964844 150 C 157.832031 150 156.832031 150.035156 155.839844 149.992188 C 154.292969 149.925781 152.882812 149.515625 151.785156 148.210938 C 151.394531 147.742188 151.171875 147.257812 151.132812 146.664062 C 151.117188 146.433594 151.195312 146.195312 151.242188 145.90625 C 151.914062 146.554688 152.308594 146.777344 153.113281 146.777344 C 153.984375 146.777344 154.859375 146.699219 155.730469 146.632812 C 156.148438 146.605469 156.566406 146.53125 156.976562 146.476562 C 157.210938 147.925781 157.957031 148.980469 158.964844 150 Z M 165.976562 138.054688 C 166.113281 137.804688 166.179688 137.65625 166.265625 137.523438 C 166.753906 136.785156 167.261719 136.0625 167.730469 135.308594 C 168.152344 134.628906 168.535156 133.917969 168.921875 133.210938 C 169.539062 132.082031 170.132812 130.9375 170.757812 129.808594 C 171.242188 128.929688 171.9375 128.320312 172.867188 128.019531 C 173.710938 127.75 174.839844 128.230469 175.117188 129.296875 C 175.308594 130.042969 175.261719 130.773438 175.054688 131.511719 C 174.855469 132.242188 174.476562 132.859375 174.054688 133.453125 C 173.371094 134.421875 172.671875 135.382812 171.996094 136.359375 C 171.46875 137.121094 170.96875 137.898438 170.453125 138.667969 C 170.359375 138.8125 170.261719 138.953125 170.148438 139.121094 C 168.84375 138.445312 167.496094 138.089844 165.976562 138.054688 Z M 169.179688 153.46875 C 168.9375 152.535156 168.402344 151.832031 167.769531 151.269531 C 167.011719 150.59375 166.171875 150.019531 165.328125 149.472656 C 164.390625 148.863281 163.515625 148.171875 162.699219 147.398438 C 162.117188 146.839844 161.574219 146.226562 161.011719 145.640625 C 160.9375 145.566406 160.855469 145.5 160.777344 145.429688 C 160.457031 145.144531 160.132812 144.855469 159.746094 144.515625 C 159.941406 144.492188 160.042969 144.46875 160.140625 144.472656 C 162.527344 144.515625 164.917969 144.535156 167.304688 144.628906 C 168.136719 144.664062 168.960938 144.863281 169.722656 145.304688 C 170.847656 145.957031 171.492188 146.921875 171.503906 148.3125 C 171.507812 149.199219 171.289062 150.003906 170.878906 150.796875 C 170.394531 151.726562 169.875 152.613281 169.179688 153.46875 Z M 162.683594 154.863281 C 162.71875 154.851562 162.757812 154.835938 162.796875 154.820312 C 163.085938 155.195312 163.367188 155.574219 163.667969 155.941406 C 163.90625 156.238281 164.257812 156.289062 164.425781 156.078125 C 164.570312 155.898438 164.488281 155.617188 164.246094 155.359375 C 164.042969 155.144531 163.84375 154.917969 163.6875 154.664062 C 163.398438 154.175781 163.121094 153.679688 162.871094 153.164062 C 162.539062 152.480469 162.183594 151.828125 161.613281 151.328125 C 160.953125 150.746094 160.308594 150.152344 159.664062 149.554688 C 158.898438 148.84375 158.191406 148.082031 157.933594 146.992188 C 157.777344 146.339844 157.742188 145.675781 158.15625 144.992188 C 158.398438 145.398438 158.589844 145.757812 158.816406 146.085938 C 159.011719 146.359375 159.238281 146.617188 159.480469 146.84375 C 159.75 147.097656 160.058594 147.292969 160.34375 147.527344 C 160.789062 147.894531 161.304688 147.988281 161.835938 147.945312 C 162.070312 147.929688 162.210938 147.988281 162.378906 148.140625 C 162.898438 148.613281 163.410156 149.101562 163.972656 149.511719 C 164.820312 150.125 165.722656 150.644531 166.566406 151.265625 C 167.023438 151.601562 167.453125 152.015625 167.808594 152.472656 C 168.457031 153.304688 168.523438 154.296875 168.351562 155.332031 C 168.171875 156.429688 167.492188 157.214844 166.898438 158.054688 C 166.785156 158.214844 166.671875 158.382812 166.542969 158.523438 C 165.847656 159.273438 165.148438 160.015625 164.445312 160.757812 C 164.320312 160.886719 164.175781 160.992188 164.011719 161.132812 C 163.558594 158.992188 163.121094 156.925781 162.683594 154.863281 Z M 136.984375 134.1875 C 137.453125 134.558594 137.847656 134.875 138.242188 135.183594 C 139.417969 136.089844 140.582031 137.015625 141.777344 137.894531 C 142.71875 138.589844 143.691406 139.238281 144.660156 139.886719 C 145.164062 140.226562 145.699219 140.515625 146.210938 140.835938 C 146.742188 141.164062 147.265625 141.503906 147.910156 141.910156 C 147.765625 141.992188 147.683594 142.023438 147.617188 142.074219 C 147 142.558594 146.386719 143.050781 145.765625 143.527344 C 144.667969 144.367188 143.457031 144.933594 142.140625 145.261719 C 140.769531 145.601562 139.429688 145.597656 138.128906 144.917969 C 137.875 144.785156 137.746094 144.660156 137.738281 144.363281 C 137.691406 143.171875 137.605469 141.984375 137.578125 140.792969 C 137.535156 138.945312 137.597656 137.089844 137.222656 135.265625 C 137.15625 134.933594 137.074219 134.605469 136.984375 134.1875 Z M 159.25 139.171875 C 161.03125 139.042969 162.773438 138.875 164.523438 138.796875 C 165.378906 138.757812 166.242188 138.835938 167.09375 138.941406 C 168.0625 139.0625 168.964844 139.394531 169.839844 139.910156 C 170.441406 140.265625 170.84375 140.761719 171.160156 141.300781 C 171.785156 142.371094 171.261719 143.578125 170.105469 143.925781 C 169.515625 144.105469 168.914062 144.191406 168.292969 143.996094 C 167.9375 143.882812 167.550781 143.847656 167.175781 143.832031 C 165.386719 143.761719 163.601562 143.695312 161.8125 143.652344 C 160.492188 143.621094 159.179688 143.730469 157.867188 143.914062 C 156.832031 144.058594 155.777344 144.0625 154.730469 144.121094 C 154.636719 144.125 154.523438 144.082031 154.441406 144.023438 C 154.015625 143.726562 153.570312 143.445312 153.1875 143.09375 C 152.996094 142.917969 152.898438 142.605469 152.816406 142.332031 C 152.78125 142.214844 152.898438 142.042969 152.953125 141.871094 C 153.417969 142.273438 153.941406 142.4375 154.496094 142.4375 C 155.148438 142.4375 155.804688 142.429688 156.457031 142.363281 C 157.117188 142.296875 157.777344 142.242188 158.394531 141.890625 C 158.859375 141.621094 159.074219 141.257812 159.117188 140.730469 C 159.160156 140.242188 159.203125 139.753906 159.25 139.171875 Z M 157.917969 128.332031 C 157.753906 128.40625 157.664062 128.464844 157.566406 128.492188 C 156.191406 128.894531 154.914062 129.550781 153.613281 130.160156 C 152.394531 130.734375 151.191406 131.347656 149.945312 131.851562 C 148.722656 132.347656 147.433594 132.550781 146.121094 132.582031 C 144.671875 132.617188 143.246094 132.433594 141.824219 132.160156 C 139.75 131.761719 137.683594 131.335938 135.753906 130.398438 C 134.976562 130.023438 134.210938 129.605469 133.628906 128.890625 C 134.011719 127.753906 134.824219 127.113281 135.792969 126.664062 C 137.140625 126.042969 138.578125 125.890625 140.03125 125.863281 C 142.535156 125.816406 145.003906 126.179688 147.46875 126.582031 C 149.300781 126.882812 151.128906 127.222656 152.964844 127.527344 C 154.59375 127.804688 156.222656 128.058594 157.917969 128.332031 Z M 157.832031 150.816406 C 158.292969 150.816406 158.691406 150.875 159.066406 150.804688 C 159.597656 150.703125 160.007812 150.859375 160.378906 151.242188 C 160.5 151.367188 160.667969 151.4375 160.785156 151.570312 C 161.230469 152.066406 161.855469 152.460938 161.703125 153.324219 C 161.683594 153.429688 161.714844 153.546875 161.730469 153.652344 C 161.875 154.472656 162.015625 155.292969 162.164062 156.109375 C 162.464844 157.710938 162.75 159.3125 163.1875 160.886719 C 163.585938 162.304688 163.769531 163.785156 164.316406 165.171875 C 164.847656 166.507812 165.257812 167.894531 165.6875 169.273438 C 166.003906 170.285156 166.179688 171.335938 166.542969 172.339844 C 167 173.597656 167.480469 174.832031 168.042969 176.039062 C 168.433594 176.878906 168.769531 177.753906 169.140625 178.609375 C 169.195312 178.738281 169.289062 178.851562 169.382812 178.960938 C 170.359375 180.089844 171.554688 180.828125 172.953125 181.203125 C 174.410156 181.59375 175.902344 181.726562 177.390625 181.738281 C 179.4375 181.75 181.484375 181.671875 183.53125 181.644531 C 183.78125 181.640625 184.03125 181.726562 184.375 181.789062 C 183.765625 182.441406 183.066406 182.535156 182.417969 182.730469 C 180.773438 183.222656 179.101562 183.621094 177.46875 184.15625 C 175.65625 184.75 173.851562 185.378906 171.988281 185.777344 C 170.390625 186.117188 168.785156 186.398438 167.152344 186.492188 C 166.398438 186.535156 165.644531 186.582031 164.890625 186.636719 C 163.585938 186.730469 162.285156 186.832031 160.984375 186.933594 C 160.007812 187.007812 159.027344 187.042969 158.054688 187.171875 C 156.8125 187.332031 155.582031 187.578125 154.34375 187.769531 C 153.953125 187.832031 153.554688 187.875 153.058594 187.726562 C 153.402344 187.511719 153.640625 187.328125 153.902344 187.207031 C 154.546875 186.914062 155.203125 186.652344 155.855469 186.378906 C 156.695312 186.019531 157.53125 185.640625 158.378906 185.300781 C 159.964844 184.667969 161.539062 184.03125 162.933594 182.957031 C 164.007812 182.128906 164.730469 181.085938 165.085938 179.742188 C 165.121094 179.601562 165.117188 179.449219 165.109375 179.304688 C 165.085938 178.871094 165.027344 178.433594 165.027344 178 C 165.03125 176.566406 165.011719 175.132812 164.6875 173.734375 C 164.46875 172.789062 164.203125 171.851562 163.96875 170.910156 C 163.582031 169.367188 163.433594 167.769531 162.941406 166.25 C 162.511719 164.914062 162.261719 163.523438 161.777344 162.195312 C 161.300781 160.882812 161.019531 159.488281 160.652344 158.128906 C 160.289062 156.785156 159.960938 155.433594 159.390625 154.164062 C 159.03125 153.363281 158.835938 152.484375 158.316406 151.761719 C 158.125 151.496094 158.007812 151.167969 157.832031 150.816406 Z M 137.835938 105.6875 C 137.074219 105.699219 135.773438 105.59375 134.535156 105.128906 C 134.070312 104.953125 133.570312 104.695312 133.246094 104.324219 C 132.65625 103.648438 132.789062 102.949219 133.390625 102.160156 C 133.824219 101.597656 134.296875 101.054688 134.871094 100.605469 C 135.695312 99.953125 136.554688 99.371094 137.449219 98.847656 C 138.816406 98.050781 140.246094 97.40625 141.699219 96.804688 C 143.390625 96.097656 145.117188 95.519531 146.882812 95.082031 C 148.246094 94.746094 149.625 94.453125 151.007812 94.210938 C 152.105469 94.019531 153.214844 93.890625 154.320312 93.816406 C 155.691406 93.722656 157.0625 93.765625 158.40625 94.109375 C 159.347656 94.355469 160.285156 94.570312 160.777344 95.675781 C 160.949219 96.0625 160.996094 96.375 160.839844 96.6875 C 160.632812 97.113281 160.355469 97.511719 160.0625 97.882812 C 159.460938 98.636719 158.71875 99.214844 157.945312 99.753906 C 156.933594 100.460938 155.882812 101.097656 154.761719 101.597656 C 153.421875 102.195312 152.09375 102.828125 150.71875 103.324219 C 148.269531 104.207031 145.761719 104.859375 143.199219 105.265625 C 141.601562 105.515625 140 105.695312 137.835938 105.6875 Z M 133.089844 128.238281 C 132.773438 127.578125 132.417969 127.015625 132.21875 126.398438 C 131.8125 125.125 131.441406 123.835938 131.15625 122.53125 C 130.984375 121.734375 130.941406 120.894531 130.9375 120.074219 C 130.917969 117.148438 130.894531 114.21875 131.320312 111.308594 C 131.535156 109.828125 131.613281 108.320312 131.769531 106.828125 C 131.816406 106.347656 131.90625 105.875 131.984375 105.378906 C 132.375 105.613281 132.703125 105.84375 133.054688 106.015625 C 134.242188 106.601562 135.523438 106.722656 136.804688 106.78125 C 139.320312 106.890625 141.800781 106.539062 144.261719 106.015625 C 146.902344 105.449219 149.480469 104.648438 151.988281 103.609375 C 153.789062 102.867188 155.550781 102.027344 157.1875 100.921875 C 157.589844 100.652344 157.988281 100.367188 158.367188 100.058594 C 158.929688 99.597656 159.519531 99.15625 160.019531 98.621094 C 160.578125 98.023438 161.09375 97.367188 161.3125 96.472656 C 161.964844 97.285156 162.613281 98.03125 163.195312 98.832031 C 164.019531 99.964844 164.824219 101.117188 165.578125 102.304688 C 166.230469 103.328125 166.796875 104.410156 167.402344 105.464844 C 167.429688 105.511719 167.449219 105.5625 167.476562 105.609375 C 167.960938 106.480469 168.46875 107.332031 168.917969 108.21875 C 169.304688 108.980469 169.667969 109.765625 169.96875 110.570312 C 170.507812 112.003906 171.050781 113.441406 171.480469 114.910156 C 171.828125 116.101562 172.046875 117.339844 172.265625 118.570312 C 172.371094 119.140625 172.371094 119.738281 172.375 120.324219 C 172.386719 121.835938 172.398438 123.328125 172.050781 124.828125 C 171.6875 126.402344 171.039062 127.792969 170.222656 129.140625 C 170.046875 129.039062 169.859375 128.957031 169.703125 128.828125 C 168.816406 128.105469 167.78125 127.800781 166.710938 127.617188 C 164.722656 127.277344 162.738281 127.382812 160.753906 127.695312 C 160.25 127.773438 159.722656 127.875 159.222656 127.804688 C 156.566406 127.429688 153.910156 127.035156 151.261719 126.582031 C 148.171875 126.054688 145.09375 125.453125 141.964844 125.253906 C 140.222656 125.140625 138.488281 125.1875 136.78125 125.613281 C 135.28125 125.988281 134.015625 126.765625 133.089844 128.238281 Z M 161.980469 165.300781 C 162.289062 166.824219 162.554688 168.257812 162.871094 169.679688 C 163.15625 170.984375 163.503906 172.277344 163.808594 173.582031 C 163.921875 174.078125 163.941406 174.601562 164.078125 175.089844 C 164.496094 176.5625 164.160156 178.074219 164.328125 179.554688 C 164.339844 179.660156 164.3125 179.78125 164.269531 179.875 C 163.707031 181.128906 162.925781 182.136719 161.757812 182.84375 C 160.320312 183.714844 158.757812 184.253906 157.253906 184.945312 C 155.808594 185.605469 154.269531 186.03125 152.90625 186.898438 C 152.792969 186.972656 152.664062 187.027344 152.558594 187.117188 C 152.292969 187.351562 152.101562 187.648438 152.214844 188.027344 C 152.324219 188.410156 152.636719 188.578125 152.976562 188.566406 C 153.714844 188.550781 154.457031 188.542969 155.179688 188.414062 C 156.808594 188.128906 158.433594 187.890625 160.082031 187.796875 C 161.746094 187.699219 163.40625 187.53125 165.066406 187.402344 C 165.804688 187.34375 166.542969 187.3125 167.28125 187.261719 C 169.203125 187.136719 171.109375 186.851562 172.96875 186.339844 C 174.867188 185.8125 176.730469 185.144531 178.621094 184.574219 C 179.871094 184.199219 181.136719 183.878906 182.394531 183.539062 C 183.160156 183.332031 183.917969 183.121094 184.601562 182.671875 C 184.941406 182.449219 185.160156 182.195312 185.140625 181.761719 C 185.125 181.324219 184.859375 181.117188 184.488281 181.042969 C 184.171875 180.976562 183.851562 180.871094 183.535156 180.875 C 181.589844 180.894531 179.648438 180.96875 177.703125 180.964844 C 176.226562 180.960938 174.757812 180.84375 173.308594 180.488281 C 171.890625 180.136719 170.714844 179.398438 169.808594 178.183594 C 169.765625 178.128906 169.746094 178.054688 169.714844 177.988281 C 169.167969 176.699219 168.632812 175.402344 168.066406 174.121094 C 167.433594 172.683594 167.011719 171.179688 166.625 169.648438 C 166.304688 168.371094 165.898438 167.109375 165.398438 165.902344 C 164.957031 164.828125 164.726562 163.699219 164.398438 162.59375 C 164.296875 162.265625 164.363281 161.992188 164.59375 161.75 C 165.257812 161.042969 165.9375 160.355469 166.574219 159.621094 C 167.242188 158.847656 167.949219 158.105469 168.460938 157.175781 C 168.863281 156.441406 169.175781 155.714844 169.273438 154.855469 C 169.304688 154.550781 169.589844 154.269531 169.78125 153.992188 C 169.921875 153.789062 170.117188 153.628906 170.246094 153.421875 C 170.957031 152.3125 171.652344 151.214844 172.070312 149.902344 C 172.359375 148.984375 172.460938 148.089844 172.1875 147.246094 C 171.878906 146.300781 171.429688 145.363281 170.511719 144.859375 C 170.46875 144.835938 170.433594 144.789062 170.40625 144.765625 C 170.816406 144.429688 171.273438 144.144531 171.617188 143.746094 C 172.046875 143.253906 172.417969 142.636719 172.207031 141.933594 C 172.03125 141.34375 171.707031 140.796875 171.40625 140.253906 C 171.265625 139.996094 171.027344 139.800781 170.808594 139.539062 C 171.261719 138.890625 171.738281 138.21875 172.210938 137.542969 C 172.242188 137.5 172.277344 137.457031 172.304688 137.414062 C 172.917969 136.515625 173.542969 135.625 174.144531 134.714844 C 174.652344 133.949219 175.21875 133.210938 175.609375 132.378906 C 176.167969 131.179688 176.316406 129.882812 175.734375 128.617188 C 175.246094 127.558594 173.878906 126.945312 172.796875 127.234375 C 172.558594 127.300781 172.316406 127.378906 172.027344 127.46875 C 172.5 126.644531 172.699219 125.800781 172.84375 124.949219 C 173.125 123.265625 173.167969 121.5625 173.09375 119.851562 C 173.015625 118.140625 172.796875 116.457031 172.320312 114.828125 C 171.96875 113.617188 171.523438 112.4375 171.097656 111.253906 C 170.902344 110.714844 170.667969 110.195312 170.429688 109.675781 C 169.921875 108.570312 169.414062 107.457031 168.875 106.363281 C 168.542969 105.691406 168.171875 105.039062 167.785156 104.402344 C 167.03125 103.148438 166.277344 101.890625 165.472656 100.675781 C 164.773438 99.625 164.023438 98.613281 163.261719 97.613281 C 162.648438 96.808594 161.980469 96.054688 161.347656 95.265625 C 161.152344 95.023438 161.015625 94.71875 160.796875 94.5 C 160.035156 93.722656 159.0625 93.429688 158.0625 93.230469 C 156.359375 92.890625 154.640625 92.933594 152.929688 93.046875 C 151.808594 93.121094 150.691406 93.34375 149.582031 93.546875 C 148.285156 93.785156 146.988281 94.035156 145.710938 94.363281 C 144.535156 94.667969 143.375 95.046875 142.226562 95.464844 C 141.273438 95.808594 140.363281 96.277344 139.417969 96.644531 C 138.082031 97.164062 136.84375 97.898438 135.617188 98.644531 C 134.957031 99.046875 134.390625 99.625 133.738281 100.046875 C 133.136719 100.429688 132.761719 101.039062 132.269531 101.523438 C 131.800781 101.980469 131.601562 102.636719 131.46875 103.273438 C 131.304688 104.027344 131.21875 104.800781 131.121094 105.566406 C 130.972656 106.710938 130.824219 107.851562 130.714844 109 C 130.5625 110.605469 130.398438 112.210938 130.324219 113.820312 C 130.238281 115.746094 130.238281 117.675781 130.199219 119.601562 C 130.15625 121.640625 130.507812 123.617188 131.074219 125.546875 C 131.328125 126.40625 131.730469 127.210938 132.066406 128.054688 C 131.515625 128.011719 130.996094 127.960938 130.472656 127.9375 C 129.300781 127.886719 128.40625 129.023438 128.582031 130.363281 C 128.671875 131.078125 128.835938 131.769531 129.070312 132.457031 C 129.441406 133.554688 129.652344 134.710938 129.984375 135.824219 C 130.59375 137.863281 130.597656 139.964844 130.539062 142.058594 C 130.492188 143.761719 130.371094 145.46875 130.183594 147.160156 C 130.058594 148.273438 129.757812 149.359375 129.539062 150.460938 C 129.429688 151.015625 129.347656 151.578125 129.21875 152.125 C 128.855469 153.695312 128.511719 155.269531 128.082031 156.820312 C 127.519531 158.847656 127.46875 160.917969 127.527344 163.003906 C 127.550781 163.699219 127.613281 164.398438 127.742188 165.078125 C 128.058594 166.738281 128.402344 168.390625 128.773438 170.035156 C 128.960938 170.855469 129.265625 171.648438 129.464844 172.46875 C 129.902344 174.253906 129.757812 176.027344 129.328125 177.792969 C 129.09375 178.753906 128.808594 179.707031 128.65625 180.683594 C 128.457031 181.984375 128.355469 183.300781 128.234375 184.613281 C 127.960938 187.582031 128.058594 190.558594 128.082031 193.53125 C 128.09375 195.363281 128.28125 197.199219 128.324219 199.03125 C 128.371094 201.089844 128.347656 203.144531 128.351562 205.203125 C 128.351562 205.40625 128.34375 205.609375 128.347656 205.808594 C 128.351562 206.082031 128.457031 206.304688 128.730469 206.292969 C 128.976562 206.28125 129.179688 206.164062 129.175781 205.816406 C 129.171875 205.136719 129.207031 204.457031 129.195312 203.777344 C 129.160156 201.484375 129.199219 199.179688 129.027344 196.894531 C 128.933594 195.640625 128.808594 194.386719 128.796875 193.128906 C 128.78125 190.613281 128.828125 188.097656 128.878906 185.585938 C 128.890625 185.027344 129.007812 184.472656 129.085938 183.917969 C 129.285156 182.449219 129.453125 180.976562 129.703125 179.519531 C 129.847656 178.652344 130.152344 177.816406 130.335938 176.957031 C 130.675781 175.375 130.722656 173.761719 130.242188 172.226562 C 129.742188 170.617188 129.488281 168.945312 129.046875 167.328125 C 128.421875 165.03125 128.261719 162.695312 128.375 160.335938 C 128.433594 159.117188 128.644531 157.902344 128.878906 156.703125 C 129.097656 155.570312 129.464844 154.472656 129.714844 153.347656 C 130.089844 151.652344 130.460938 149.953125 130.765625 148.242188 C 130.953125 147.183594 130.945312 146.082031 131.15625 145.03125 C 131.335938 144.140625 131.347656 143.253906 131.371094 142.367188 C 131.398438 141.175781 131.46875 139.960938 131.304688 138.792969 C 131.046875 136.976562 130.832031 135.132812 130.199219 133.410156 C 129.84375 132.4375 129.5625 131.457031 129.4375 130.433594 C 129.398438 130.097656 129.433594 129.734375 129.511719 129.402344 C 129.605469 128.992188 129.902344 128.777344 130.300781 128.726562 C 130.894531 128.652344 131.457031 128.761719 132.023438 128.945312 C 132.511719 129.101562 132.820312 129.398438 133.113281 129.847656 C 133.589844 130.570312 134.183594 131.207031 134.726562 131.878906 C 134.757812 131.917969 134.792969 131.964844 134.824219 132.007812 C 135.808594 133.441406 136.539062 134.988281 136.601562 136.8125 C 136.660156 138.332031 136.695312 139.855469 136.738281 141.378906 C 136.765625 142.167969 136.707031 142.972656 136.832031 143.742188 C 137.039062 145.007812 137.257812 146.296875 137.902344 147.40625 C 138.382812 148.230469 138.980469 148.976562 139.539062 149.75 C 139.679688 149.945312 139.871094 150.117188 140.105469 149.894531 C 140.316406 149.695312 140.25 149.46875 140.097656 149.261719 C 139.761719 148.804688 139.378906 148.375 139.097656 147.886719 C 138.734375 147.257812 138.445312 146.578125 138.171875 145.878906 C 138.980469 146.121094 139.761719 146.265625 140.566406 146.253906 C 141.789062 146.242188 142.945312 145.925781 144.058594 145.433594 C 145.507812 144.796875 146.789062 143.855469 147.980469 142.773438 C 148.175781 142.597656 148.402344 142.464844 148.578125 142.335938 C 150.128906 142.964844 151.652344 143.582031 153.175781 144.195312 C 152.703125 144.335938 152.210938 144.441406 151.746094 144.625 C 150.613281 145.066406 149.980469 146.085938 150.398438 147.332031 C 150.65625 148.097656 151.113281 148.777344 151.761719 149.316406 C 153.089844 150.429688 154.609375 150.792969 156.238281 150.777344 C 156.667969 150.773438 156.890625 150.957031 157.152344 151.3125 C 157.695312 152.058594 157.957031 152.945312 158.371094 153.757812 C 158.867188 154.726562 159.050781 155.804688 159.445312 156.804688 C 159.996094 158.207031 160.191406 159.707031 160.589844 161.152344 C 160.835938 162.035156 161.144531 162.898438 161.441406 163.761719 C 161.566406 164.117188 161.5625 164.414062 161.320312 164.71875 C 160.628906 165.566406 159.972656 166.453125 159.265625 167.285156 C 158.613281 168.050781 157.90625 168.761719 157.226562 169.503906 C 157.109375 169.632812 157.007812 169.789062 156.898438 169.925781 C 156.359375 170.609375 155.8125 171.285156 155.285156 171.980469 C 154.53125 172.964844 153.796875 173.964844 153.050781 174.953125 C 152.1875 176.097656 151.335938 177.253906 150.675781 178.554688 C 150.386719 179.128906 150.09375 179.699219 149.8125 180.273438 C 149.042969 181.878906 148.789062 183.617188 148.675781 185.386719 C 148.582031 186.816406 148.558594 188.257812 148.332031 189.660156 C 148.078125 191.21875 148.179688 192.765625 148.191406 194.316406 C 148.210938 196.105469 148.351562 197.894531 148.445312 199.6875 C 148.515625 200.988281 148.574219 202.289062 148.695312 203.585938 C 148.832031 205.042969 149.03125 206.492188 149.214844 207.941406 C 149.25 208.21875 149.488281 208.375 149.742188 208.335938 C 150.019531 208.292969 150.050781 208.070312 150.027344 207.839844 C 149.957031 207.222656 149.863281 206.609375 149.792969 205.992188 C 149.695312 205.136719 149.609375 204.28125 149.511719 203.429688 C 149.449219 202.890625 149.34375 202.359375 149.300781 201.824219 C 149.222656 200.871094 149.148438 199.917969 149.128906 198.964844 C 149.070312 196.304688 149.003906 193.640625 149.023438 190.976562 C 149.03125 189.53125 149.148438 188.078125 149.3125 186.644531 C 149.492188 185.074219 149.746094 183.515625 150.042969 181.964844 C 150.28125 180.703125 150.980469 179.636719 151.546875 178.519531 C 151.761719 178.09375 152.054688 177.710938 152.328125 177.320312 C 153.191406 176.082031 154.046875 174.832031 154.941406 173.617188 C 155.625 172.691406 156.347656 171.792969 157.082031 170.910156 C 157.566406 170.328125 158.105469 169.800781 158.609375 169.234375 C 159.234375 168.535156 159.855469 167.832031 160.457031 167.109375 C 160.886719 166.59375 161.277344 166.042969 161.691406 165.515625 C 161.742188 165.449219 161.824219 165.414062 161.980469 165.300781 " fill-opacity="1" fill-rule="nonzero"/></g><path fill="#fafafa" d="M 152.007812 153.464844 C 151.816406 153.464844 151.675781 153.683594 151.726562 153.917969 C 151.929688 154.84375 152.027344 155.796875 151.777344 156.699219 C 151.503906 157.6875 151.175781 158.699219 150.671875 159.566406 C 150.023438 160.675781 149.128906 161.597656 148.105469 162.355469 C 147.683594 162.667969 147.292969 163.027344 146.871094 163.339844 C 145.804688 164.132812 144.703125 164.875 143.660156 165.699219 C 143.144531 166.109375 142.667969 166.609375 142.277344 167.15625 C 141.542969 168.171875 140.96875 169.292969 140.671875 170.558594 C 140.558594 171.050781 140.375 171.523438 140.230469 172.003906 C 140.179688 172.160156 140.148438 172.324219 140.125 172.488281 C 140.09375 172.707031 140.054688 172.941406 140.339844 173.019531 C 140.625 173.09375 140.753906 172.921875 140.816406 172.660156 C 140.957031 172.074219 141.039062 171.464844 141.242188 170.902344 C 141.578125 169.96875 141.902344 169.007812 142.390625 168.167969 C 143.015625 167.09375 143.898438 166.242188 144.921875 165.582031 C 145.378906 165.289062 145.824219 164.980469 146.25 164.644531 C 147.242188 163.863281 148.222656 163.070312 149.199219 162.265625 C 150.167969 161.464844 150.921875 160.476562 151.546875 159.335938 C 152.457031 157.664062 152.664062 155.910156 152.382812 154.046875 C 152.320312 153.632812 152.195312 153.460938 152.007812 153.464844 " fill-opacity="1" fill-rule="nonzero"/><path fill="#fafafa" d="M 153.65625 157.972656 C 153.699219 157.511719 153.765625 157.113281 154.046875 156.734375 C 154.417969 156.246094 154.742188 155.742188 155.273438 155.429688 C 155.464844 155.320312 155.625 155.101562 155.4375 154.894531 C 155.347656 154.792969 155.046875 154.757812 154.945312 154.839844 C 154.039062 155.550781 153.136719 156.308594 153.085938 157.644531 C 153.0625 158.179688 153.171875 158.734375 153.28125 159.265625 C 153.457031 160.121094 153.925781 160.835938 154.363281 161.550781 C 155.035156 162.644531 155.75 163.710938 156.449219 164.785156 C 156.578125 164.980469 156.738281 165.148438 156.960938 164.960938 C 157.148438 164.800781 157.0625 164.589844 156.949219 164.417969 C 156.296875 163.414062 155.632812 162.421875 154.996094 161.410156 C 154.777344 161.0625 154.589844 160.683594 154.441406 160.292969 C 154.199219 159.65625 153.777344 159.097656 153.707031 158.382812 C 153.691406 158.238281 153.667969 158.09375 153.65625 157.972656 " fill-opacity="1" fill-rule="nonzero"/><path fill="#fafafa" d="M 145.277344 179.410156 C 145.722656 179.355469 146.035156 179.351562 146.332031 179.269531 C 146.457031 179.234375 146.617188 179.042969 146.625 178.910156 C 146.640625 178.679688 146.429688 178.648438 146.246094 178.652344 C 145.632812 178.660156 145.007812 178.734375 144.402344 178.664062 C 143.105469 178.519531 141.921875 177.976562 140.777344 177.332031 C 139.636719 176.691406 138.617188 175.867188 137.652344 174.964844 C 137.613281 174.925781 137.574219 174.863281 137.535156 174.859375 C 137.394531 174.847656 137.25 174.859375 137.109375 174.863281 C 137.117188 175.011719 137.0625 175.210938 137.136719 175.300781 C 137.378906 175.605469 137.644531 175.902344 137.941406 176.144531 C 138.441406 176.554688 138.96875 176.925781 139.496094 177.296875 C 140.886719 178.273438 142.390625 178.964844 144.03125 179.277344 C 144.484375 179.367188 144.949219 179.375 145.277344 179.410156 " fill-opacity="1" fill-rule="nonzero"/><path fill="#fafafa" d="M 141.527344 156.480469 C 141.417969 156.007812 141.328125 155.5625 141.214844 155.125 C 141.15625 154.910156 141.042969 154.675781 140.78125 154.773438 C 140.523438 154.871094 140.574219 155.128906 140.640625 155.339844 C 140.964844 156.375 140.824219 157.398438 140.425781 158.34375 C 139.910156 159.5625 139.449219 160.828125 138.671875 161.902344 C 138.414062 162.261719 138.160156 162.625 137.890625 162.972656 C 137.617188 163.328125 137.550781 163.589844 137.71875 163.742188 C 137.902344 163.90625 138.195312 163.792969 138.433594 163.4375 C 139.0625 162.503906 139.675781 161.574219 140.183594 160.550781 C 140.761719 159.390625 141.203125 158.207031 141.386719 156.914062 C 141.410156 156.757812 141.484375 156.609375 141.527344 156.480469 " fill-opacity="1" fill-rule="nonzero"/><path fill="#fafafa" d="M 131.921875 177.773438 C 132.441406 177.605469 132.960938 177.4375 133.484375 177.273438 C 133.691406 177.207031 133.84375 177.078125 133.769531 176.839844 C 133.691406 176.59375 133.457031 176.582031 133.289062 176.667969 C 132.730469 176.957031 132.132812 177.015625 131.53125 177.054688 C 131.449219 177.0625 131.351562 177.082031 131.289062 177.136719 C 131.207031 177.203125 131.117188 177.308594 131.101562 177.40625 C 131.089844 177.46875 131.207031 177.597656 131.285156 177.621094 C 131.480469 177.671875 131.6875 177.679688 131.890625 177.703125 C 131.902344 177.726562 131.910156 177.75 131.921875 177.773438 " fill-opacity="1" fill-rule="nonzero"/><path fill="#fafafa" d="M 164.433594 185.335938 C 164.585938 185.328125 164.757812 185.324219 164.925781 185.308594 C 166.300781 185.171875 167.632812 184.839844 168.957031 184.4375 C 169.761719 184.191406 170.589844 184 171.414062 183.839844 C 171.898438 183.746094 172.398438 183.757812 172.890625 183.722656 C 172.960938 183.71875 173.03125 183.734375 173.097656 183.730469 C 173.273438 183.714844 173.480469 183.683594 173.457031 183.441406 C 173.445312 183.328125 173.28125 183.148438 173.175781 183.140625 C 172.667969 183.101562 172.132812 183.011719 171.648438 183.121094 C 170.203125 183.445312 168.785156 183.882812 167.34375 184.222656 C 166.171875 184.496094 164.996094 184.792969 163.777344 184.589844 C 163.742188 184.585938 163.703125 184.566406 163.675781 184.578125 C 163.535156 184.648438 163.316406 184.695312 163.277344 184.808594 C 163.199219 185.046875 163.398438 185.164062 163.597656 185.203125 C 163.867188 185.257812 164.140625 185.289062 164.433594 185.335938 " fill-opacity="1" fill-rule="nonzero"/><g fill="#fafafa" fill-opacity="1"><g transform="translate(70.216897, 186.367562)"><g><path d="M 0.796875 -15.984375 C 0.796875 -17.554688 0.941406 -19.128906 1.234375 -20.703125 C 1.535156 -22.285156 1.992188 -23.78125 2.609375 -25.1875 C 3.234375 -26.59375 4.003906 -27.835938 4.921875 -28.921875 C 5.835938 -30.015625 6.914062 -30.875 8.15625 -31.5 C 9.40625 -32.132812 10.820312 -32.453125 12.40625 -32.453125 C 13.238281 -32.453125 14.03125 -32.34375 14.78125 -32.125 C 15.539062 -31.914062 16.316406 -31.703125 17.109375 -31.484375 C 17.910156 -31.273438 18.789062 -31.171875 19.75 -31.171875 C 20.5 -31.171875 21.09375 -31.273438 21.53125 -31.484375 C 21.96875 -31.703125 22.335938 -31.914062 22.640625 -32.125 C 22.953125 -32.34375 23.269531 -32.453125 23.59375 -32.453125 C 24.019531 -32.453125 24.265625 -32.210938 24.328125 -31.734375 C 24.390625 -31.253906 24.335938 -30.65625 24.171875 -29.9375 C 24.015625 -29.226562 23.789062 -28.519531 23.5 -27.8125 C 23.28125 -27.320312 22.96875 -26.738281 22.5625 -26.0625 C 22.164062 -25.394531 21.664062 -24.816406 21.0625 -24.328125 C 20.46875 -23.835938 19.785156 -23.59375 19.015625 -23.59375 C 17.890625 -23.59375 16.882812 -23.71875 16 -23.96875 C 15.113281 -24.226562 14.300781 -24.550781 13.5625 -24.9375 C 12.832031 -25.320312 12.128906 -25.703125 11.453125 -26.078125 C 10.785156 -26.460938 10.097656 -26.78125 9.390625 -27.03125 C 8.691406 -27.289062 7.925781 -27.421875 7.09375 -27.421875 C 6.5625 -27.421875 6.125 -27.273438 5.78125 -26.984375 C 5.445312 -26.703125 5.179688 -26.347656 4.984375 -25.921875 C 4.796875 -25.492188 4.660156 -25.066406 4.578125 -24.640625 C 4.503906 -24.222656 4.46875 -23.863281 4.46875 -23.5625 C 4.46875 -23.414062 4.460938 -23.144531 4.453125 -22.75 C 4.441406 -22.351562 4.441406 -21.9375 4.453125 -21.5 C 4.460938 -21.0625 4.515625 -20.6875 4.609375 -20.375 C 4.710938 -20.070312 4.867188 -19.921875 5.078125 -19.921875 C 5.398438 -19.921875 5.722656 -20.054688 6.046875 -20.328125 C 6.378906 -20.609375 6.820312 -20.882812 7.375 -21.15625 C 7.9375 -21.4375 8.6875 -21.578125 9.625 -21.578125 C 10.414062 -21.578125 11.179688 -21.441406 11.921875 -21.171875 C 12.671875 -20.910156 13.394531 -20.609375 14.09375 -20.265625 C 14.800781 -19.921875 15.488281 -19.613281 16.15625 -19.34375 C 16.832031 -19.082031 17.476562 -18.953125 18.09375 -18.953125 C 18.582031 -18.953125 18.960938 -19.054688 19.234375 -19.265625 C 19.515625 -19.484375 19.738281 -19.691406 19.90625 -19.890625 C 20.082031 -20.097656 20.253906 -20.203125 20.421875 -20.203125 C 20.679688 -20.203125 20.878906 -20.023438 21.015625 -19.671875 C 21.160156 -19.328125 21.234375 -18.894531 21.234375 -18.375 C 21.234375 -17.84375 21.128906 -17.269531 20.921875 -16.65625 C 20.722656 -16.039062 20.40625 -15.453125 19.96875 -14.890625 C 19.53125 -14.335938 18.960938 -13.882812 18.265625 -13.53125 C 17.578125 -13.1875 16.742188 -13.015625 15.765625 -13.015625 C 14.828125 -13.015625 13.972656 -13.207031 13.203125 -13.59375 C 12.429688 -13.988281 11.734375 -14.472656 11.109375 -15.046875 C 10.484375 -15.628906 9.894531 -16.203125 9.34375 -16.765625 C 8.800781 -17.328125 8.273438 -17.804688 7.765625 -18.203125 C 7.253906 -18.597656 6.734375 -18.796875 6.203125 -18.796875 C 5.859375 -18.796875 5.632812 -18.6875 5.53125 -18.46875 C 5.425781 -18.257812 5.382812 -18.015625 5.40625 -17.734375 C 5.425781 -17.460938 5.46875 -17.21875 5.53125 -17 C 6.164062 -15.039062 7.039062 -13.3125 8.15625 -11.8125 C 9.28125 -10.3125 10.546875 -9.132812 11.953125 -8.28125 C 13.359375 -7.425781 14.796875 -7 16.265625 -7 C 17.398438 -7 18.328125 -7.15625 19.046875 -7.46875 C 19.773438 -7.789062 20.367188 -8.1875 20.828125 -8.65625 C 21.285156 -9.125 21.65625 -9.59375 21.9375 -10.0625 C 22.226562 -10.539062 22.492188 -10.9375 22.734375 -11.25 C 22.984375 -11.570312 23.269531 -11.734375 23.59375 -11.734375 C 23.78125 -11.734375 23.957031 -11.628906 24.125 -11.421875 C 24.300781 -11.222656 24.390625 -10.75 24.390625 -10 C 24.390625 -8.914062 24.15625 -7.765625 23.6875 -6.546875 C 23.21875 -5.335938 22.53125 -4.195312 21.625 -3.125 C 20.71875 -2.0625 19.601562 -1.191406 18.28125 -0.515625 C 16.957031 0.148438 15.445312 0.484375 13.75 0.484375 C 11.957031 0.484375 10.273438 0.144531 8.703125 -0.53125 C 7.140625 -1.21875 5.765625 -2.242188 4.578125 -3.609375 C 3.398438 -4.972656 2.472656 -6.6875 1.796875 -8.75 C 1.128906 -10.820312 0.796875 -13.234375 0.796875 -15.984375 Z M 0.796875 -15.984375 "/></g></g></g><g fill="#fafafa" fill-opacity="1"><g transform="translate(95.239299, 186.367562)"><g><path d="M 17.359375 0 L 0.3125 0 C 0.738281 -0.425781 1.03125 -0.929688 1.1875 -1.515625 C 1.351562 -2.097656 1.4375 -2.847656 1.4375 -3.765625 L 1.4375 -28.203125 C 1.4375 -29.117188 1.351562 -29.867188 1.1875 -30.453125 C 1.03125 -31.035156 0.738281 -31.539062 0.3125 -31.96875 L 10.140625 -31.96875 C 11.003906 -31.96875 11.675781 -31.816406 12.15625 -31.515625 C 12.644531 -31.222656 12.984375 -30.859375 13.171875 -30.421875 C 13.359375 -29.984375 13.453125 -29.550781 13.453125 -29.125 C 13.453125 -28.332031 13.226562 -27.523438 12.78125 -26.703125 C 12.332031 -25.890625 11.753906 -25.050781 11.046875 -24.1875 C 10.347656 -23.320312 9.601562 -22.421875 8.8125 -21.484375 C 8.03125 -20.546875 7.285156 -19.5625 6.578125 -18.53125 C 5.878906 -17.507812 5.304688 -16.441406 4.859375 -15.328125 C 4.410156 -14.210938 4.1875 -13.035156 4.1875 -11.796875 C 4.1875 -11.085938 4.296875 -10.289062 4.515625 -9.40625 C 4.742188 -8.53125 5.078125 -7.632812 5.515625 -6.71875 C 5.953125 -5.800781 6.5 -4.953125 7.15625 -4.171875 C 7.820312 -3.390625 8.597656 -2.765625 9.484375 -2.296875 C 10.367188 -1.828125 11.351562 -1.59375 12.4375 -1.59375 C 13.113281 -1.59375 13.769531 -1.703125 14.40625 -1.921875 C 15.050781 -2.148438 15.582031 -2.488281 16 -2.9375 C 16.414062 -3.382812 16.625 -3.941406 16.625 -4.609375 C 16.625 -5.453125 16.441406 -6.175781 16.078125 -6.78125 C 15.710938 -7.394531 15.265625 -7.957031 14.734375 -8.46875 C 14.203125 -8.976562 13.664062 -9.515625 13.125 -10.078125 C 12.582031 -10.648438 12.128906 -11.3125 11.765625 -12.0625 C 11.398438 -12.820312 11.21875 -13.753906 11.21875 -14.859375 C 11.21875 -15.671875 11.414062 -16.425781 11.8125 -17.125 C 12.207031 -17.832031 12.734375 -18.40625 13.390625 -18.84375 C 14.054688 -19.28125 14.789062 -19.5 15.59375 -19.5 C 16.113281 -19.5 16.773438 -19.398438 17.578125 -19.203125 C 18.390625 -19.015625 19.203125 -18.757812 20.015625 -18.4375 C 20.828125 -18.125 21.507812 -17.753906 22.0625 -17.328125 C 22.613281 -16.898438 22.890625 -16.453125 22.890625 -15.984375 C 22.890625 -15.367188 22.71875 -14.878906 22.375 -14.515625 C 22.03125 -14.148438 21.59375 -13.851562 21.0625 -13.625 C 20.53125 -13.40625 19.972656 -13.203125 19.390625 -13.015625 C 18.804688 -12.835938 18.242188 -12.644531 17.703125 -12.4375 C 17.171875 -12.238281 16.734375 -11.96875 16.390625 -11.625 C 16.054688 -11.289062 15.890625 -10.835938 15.890625 -10.265625 C 15.890625 -9.796875 16.0625 -9.390625 16.40625 -9.046875 C 16.757812 -8.703125 17.207031 -8.382812 17.75 -8.09375 C 18.300781 -7.8125 18.882812 -7.515625 19.5 -7.203125 C 20.113281 -6.898438 20.691406 -6.546875 21.234375 -6.140625 C 21.785156 -5.734375 22.234375 -5.25 22.578125 -4.6875 C 22.929688 -4.125 23.109375 -3.4375 23.109375 -2.625 C 23.109375 -1.894531 22.929688 -1.34375 22.578125 -0.96875 C 22.234375 -0.601562 21.769531 -0.351562 21.1875 -0.21875 C 20.613281 -0.09375 19.988281 -0.0234375 19.3125 -0.015625 C 18.644531 -0.00390625 17.992188 0 17.359375 0 Z M 17.359375 0 "/></g></g></g><g fill="#fafafa" fill-opacity="1"><g transform="translate(118.673925, 186.367562)"><g/></g></g><g fill="#fafafa" fill-opacity="1"><g transform="translate(129.858911, 186.367562)"><g/></g></g><g fill="#fafafa" fill-opacity="1"><g transform="translate(141.043896, 186.367562)"><g/></g></g><g fill="#fafafa" fill-opacity="1"><g transform="translate(152.228882, 186.367562)"><g/></g></g><g fill="#fafafa" fill-opacity="1"><g transform="translate(163.413867, 186.367562)"><g/></g></g><g fill="#fafafa" fill-opacity="1"><g transform="translate(174.598852, 186.367562)"><g/></g></g><g fill="#fafafa" fill-opacity="1"><g transform="translate(185.787202, 186.367562)"><g><path d="M 0.3125 -31.96875 L 13.203125 -31.96875 C 15.804688 -31.96875 17.890625 -31.554688 19.453125 -30.734375 C 21.015625 -29.910156 22.148438 -28.800781 22.859375 -27.40625 C 23.578125 -26.007812 23.9375 -24.453125 23.9375 -22.734375 C 23.9375 -21.492188 23.769531 -20.269531 23.4375 -19.0625 C 23.113281 -17.863281 22.585938 -16.78125 21.859375 -15.8125 C 21.140625 -14.84375 20.210938 -14.0625 19.078125 -13.46875 C 17.953125 -12.882812 16.59375 -12.59375 15 -12.59375 C 13.78125 -12.59375 12.726562 -12.769531 11.84375 -13.125 C 10.957031 -13.476562 10.191406 -13.914062 9.546875 -14.4375 C 8.910156 -14.957031 8.351562 -15.484375 7.875 -16.015625 C 7.394531 -16.546875 6.96875 -16.988281 6.59375 -17.34375 C 6.226562 -17.695312 5.863281 -17.875 5.5 -17.875 C 5.070312 -17.875 4.78125 -17.765625 4.625 -17.546875 C 4.476562 -17.335938 4.40625 -17.101562 4.40625 -16.84375 C 4.40625 -16.414062 4.628906 -15.988281 5.078125 -15.5625 C 5.523438 -15.132812 6.128906 -14.71875 6.890625 -14.3125 C 7.648438 -13.914062 8.488281 -13.53125 9.40625 -13.15625 C 10.320312 -12.78125 11.234375 -12.410156 12.140625 -12.046875 C 13.085938 -11.710938 14.085938 -11.335938 15.140625 -10.921875 C 16.191406 -10.503906 17.21875 -10.039062 18.21875 -9.53125 C 19.21875 -9.019531 20.125 -8.441406 20.9375 -7.796875 C 21.75 -7.160156 22.398438 -6.4375 22.890625 -5.625 C 23.378906 -4.8125 23.625 -3.90625 23.625 -2.90625 C 23.625 -1.882812 23.46875 -1.144531 23.15625 -0.6875 C 22.851562 -0.226562 22.304688 0 21.515625 0 L 14.609375 0 C 14.398438 0 14.191406 -0.0507812 13.984375 -0.15625 C 13.785156 -0.257812 13.6875 -0.453125 13.6875 -0.734375 C 13.6875 -1.117188 13.734375 -1.453125 13.828125 -1.734375 C 13.921875 -2.023438 14.007812 -2.335938 14.09375 -2.671875 C 14.175781 -3.003906 14.21875 -3.4375 14.21875 -3.96875 C 14.21875 -4.664062 14 -5.40625 13.5625 -6.1875 C 13.132812 -6.96875 12.5625 -7.734375 11.84375 -8.484375 C 11.132812 -9.242188 10.363281 -9.957031 9.53125 -10.625 C 8.695312 -11.300781 7.882812 -11.898438 7.09375 -12.421875 C 6.3125 -12.941406 5.609375 -13.347656 4.984375 -13.640625 C 4.367188 -13.941406 3.929688 -14.09375 3.671875 -14.09375 C 3.460938 -14.09375 3.3125 -14.007812 3.21875 -13.84375 C 3.132812 -13.675781 3.09375 -13.546875 3.09375 -13.453125 C 3.09375 -12.921875 3.300781 -12.441406 3.71875 -12.015625 C 4.132812 -11.585938 4.671875 -11.171875 5.328125 -10.765625 C 5.992188 -10.367188 6.691406 -9.941406 7.421875 -9.484375 C 8.160156 -9.023438 8.851562 -8.503906 9.5 -7.921875 C 10.15625 -7.347656 10.691406 -6.675781 11.109375 -5.90625 C 11.523438 -5.144531 11.734375 -4.253906 11.734375 -3.234375 C 11.734375 -2.804688 11.648438 -2.34375 11.484375 -1.84375 C 11.328125 -1.34375 11.082031 -0.910156 10.75 -0.546875 C 10.425781 -0.179688 10 0 9.46875 0 L 0.359375 0 C 0.773438 -0.425781 1.0625 -0.929688 1.21875 -1.515625 C 1.382812 -2.097656 1.46875 -2.847656 1.46875 -3.765625 L 1.46875 -9.234375 L 1.4375 -15.984375 L 1.4375 -28.203125 C 1.4375 -29.117188 1.351562 -29.867188 1.1875 -30.453125 C 1.03125 -31.035156 0.738281 -31.539062 0.3125 -31.96875 Z M 11.34375 -25.28125 C 10.539062 -25.28125 9.65625 -25.25 8.6875 -25.1875 C 7.726562 -25.125 6.820312 -24.988281 5.96875 -24.78125 C 5.125 -24.582031 4.425781 -24.269531 3.875 -23.84375 C 3.332031 -23.414062 3.0625 -22.84375 3.0625 -22.125 C 3.0625 -21.394531 3.347656 -20.820312 3.921875 -20.40625 C 4.503906 -19.988281 5.269531 -19.675781 6.21875 -19.46875 C 7.164062 -19.257812 8.195312 -19.117188 9.3125 -19.046875 C 10.4375 -18.984375 11.550781 -18.953125 12.65625 -18.953125 C 13.769531 -18.953125 14.890625 -18.984375 16.015625 -19.046875 C 17.140625 -19.117188 18.175781 -19.257812 19.125 -19.46875 C 20.082031 -19.675781 20.847656 -19.988281 21.421875 -20.40625 C 21.992188 -20.820312 22.28125 -21.394531 22.28125 -22.125 C 22.28125 -22.695312 22.046875 -23.175781 21.578125 -23.5625 C 21.109375 -23.945312 20.484375 -24.253906 19.703125 -24.484375 C 18.929688 -24.722656 18.066406 -24.894531 17.109375 -25 C 16.148438 -25.101562 15.164062 -25.175781 14.15625 -25.21875 C 13.15625 -25.257812 12.21875 -25.28125 11.34375 -25.28125 Z M 11.34375 -25.28125 "/></g></g></g><g fill="#fafafa" fill-opacity="1"><g transform="translate(210.521991, 186.367562)"><g><path d="M 0.3125 0 C 0.738281 -0.425781 1.03125 -0.929688 1.1875 -1.515625 C 1.351562 -2.097656 1.4375 -2.847656 1.4375 -3.765625 L 1.4375 -28.203125 C 1.4375 -29.117188 1.351562 -29.867188 1.1875 -30.453125 C 1.03125 -31.035156 0.738281 -31.539062 0.3125 -31.96875 L 11.03125 -31.96875 C 10.601562 -31.539062 10.304688 -31.035156 10.140625 -30.453125 C 9.984375 -29.867188 9.90625 -29.117188 9.90625 -28.203125 L 9.90625 -3.765625 C 9.90625 -2.847656 9.984375 -2.097656 10.140625 -1.515625 C 10.304688 -0.929688 10.601562 -0.425781 11.03125 0 Z M 0.3125 0 "/></g></g></g><g fill="#fafafa" fill-opacity="1"><g transform="translate(221.866759, 186.367562)"><g><path d="M 0.3125 0 C 0.738281 -0.425781 1.03125 -0.929688 1.1875 -1.515625 C 1.351562 -2.097656 1.4375 -2.847656 1.4375 -3.765625 L 1.4375 -28.203125 C 1.4375 -29.117188 1.351562 -29.867188 1.1875 -30.453125 C 1.03125 -31.035156 0.738281 -31.539062 0.3125 -31.96875 L 9.84375 -31.96875 C 10.394531 -31.96875 10.875 -31.863281 11.28125 -31.65625 C 11.6875 -31.457031 12.082031 -31.03125 12.46875 -30.375 C 12.851562 -29.726562 13.285156 -28.769531 13.765625 -27.5 C 14.242188 -26.238281 14.84375 -24.53125 15.5625 -22.375 L 18.578125 -13.421875 C 18.867188 -12.546875 19.160156 -11.675781 19.453125 -10.8125 C 19.742188 -9.957031 20.03125 -9.171875 20.3125 -8.453125 C 20.601562 -7.742188 20.894531 -7.175781 21.1875 -6.75 C 21.488281 -6.320312 21.78125 -6.109375 22.0625 -6.109375 C 22.425781 -6.109375 22.6875 -6.289062 22.84375 -6.65625 C 23 -7.03125 23.101562 -7.488281 23.15625 -8.03125 C 23.207031 -8.582031 23.234375 -9.101562 23.234375 -9.59375 C 23.234375 -11.632812 22.988281 -13.472656 22.5 -15.109375 C 22.007812 -16.753906 21.40625 -18.242188 20.6875 -19.578125 C 19.976562 -20.910156 19.257812 -22.125 18.53125 -23.21875 C 17.8125 -24.320312 17.207031 -25.359375 16.71875 -26.328125 C 16.226562 -27.296875 15.984375 -28.238281 15.984375 -29.15625 C 15.984375 -30.132812 16.335938 -30.847656 17.046875 -31.296875 C 17.765625 -31.742188 18.59375 -31.96875 19.53125 -31.96875 L 26.21875 -31.96875 C 25.789062 -31.539062 25.492188 -31.035156 25.328125 -30.453125 C 25.171875 -29.867188 25.09375 -29.117188 25.09375 -28.203125 L 25.09375 -3.765625 C 25.09375 -2.847656 25.171875 -2.097656 25.328125 -1.515625 C 25.492188 -0.929688 25.789062 -0.425781 26.21875 0 L 17.84375 0 C 16.925781 0 16.132812 -0.226562 15.46875 -0.6875 C 14.8125 -1.144531 14.253906 -1.765625 13.796875 -2.546875 C 13.335938 -3.335938 12.925781 -4.226562 12.5625 -5.21875 C 12.195312 -6.21875 11.835938 -7.257812 11.484375 -8.34375 C 11.265625 -8.976562 10.992188 -9.757812 10.671875 -10.6875 C 10.359375 -11.613281 10.023438 -12.582031 9.671875 -13.59375 C 9.316406 -14.613281 8.984375 -15.5625 8.671875 -16.4375 C 8.367188 -17.3125 8.128906 -18.015625 7.953125 -18.546875 C 7.660156 -19.421875 7.367188 -20.285156 7.078125 -21.140625 C 6.796875 -22.003906 6.507812 -22.789062 6.21875 -23.5 C 5.925781 -24.21875 5.632812 -24.789062 5.34375 -25.21875 C 5.0625 -25.644531 4.769531 -25.859375 4.46875 -25.859375 C 4.132812 -25.859375 3.878906 -25.671875 3.703125 -25.296875 C 3.535156 -24.929688 3.425781 -24.472656 3.375 -23.921875 C 3.320312 -23.378906 3.296875 -22.863281 3.296875 -22.375 C 3.296875 -20.332031 3.539062 -18.488281 4.03125 -16.84375 C 4.519531 -15.207031 5.125 -13.722656 5.84375 -12.390625 C 6.570312 -11.054688 7.289062 -9.835938 8 -8.734375 C 8.71875 -7.640625 9.320312 -6.609375 9.8125 -5.640625 C 10.300781 -4.671875 10.546875 -3.726562 10.546875 -2.8125 C 10.546875 -1.832031 10.1875 -1.117188 9.46875 -0.671875 C 8.757812 -0.222656 7.9375 0 7 0 Z M 0.3125 0 "/></g></g></g><g fill="#fafafa" fill-opacity="1"><g transform="translate(248.391141, 186.367562)"><g><path d="M 13.75 0.484375 C 11.957031 0.484375 10.273438 0.144531 8.703125 -0.53125 C 7.140625 -1.21875 5.765625 -2.242188 4.578125 -3.609375 C 3.398438 -4.972656 2.472656 -6.6875 1.796875 -8.75 C 1.128906 -10.820312 0.796875 -13.234375 0.796875 -15.984375 C 0.796875 -17.554688 0.941406 -19.128906 1.234375 -20.703125 C 1.535156 -22.285156 1.992188 -23.78125 2.609375 -25.1875 C 3.234375 -26.59375 4.003906 -27.835938 4.921875 -28.921875 C 5.835938 -30.015625 6.914062 -30.875 8.15625 -31.5 C 9.40625 -32.132812 10.820312 -32.453125 12.40625 -32.453125 C 13.238281 -32.453125 14.03125 -32.34375 14.78125 -32.125 C 15.539062 -31.914062 16.316406 -31.703125 17.109375 -31.484375 C 17.910156 -31.273438 18.789062 -31.171875 19.75 -31.171875 C 20.5 -31.171875 21.09375 -31.273438 21.53125 -31.484375 C 21.96875 -31.703125 22.335938 -31.914062 22.640625 -32.125 C 22.953125 -32.34375 23.269531 -32.453125 23.59375 -32.453125 C 24.019531 -32.453125 24.265625 -32.210938 24.328125 -31.734375 C 24.390625 -31.253906 24.335938 -30.65625 24.171875 -29.9375 C 24.015625 -29.226562 23.789062 -28.519531 23.5 -27.8125 C 23.34375 -27.46875 23.144531 -27.082031 22.90625 -26.65625 C 22.675781 -26.226562 22.40625 -25.804688 22.09375 -25.390625 C 21.75 -24.941406 21.332031 -24.460938 20.84375 -23.953125 C 20.351562 -23.453125 19.878906 -22.925781 19.421875 -22.375 C 18.960938 -21.820312 18.578125 -21.257812 18.265625 -20.6875 C 17.960938 -20.113281 17.8125 -19.535156 17.8125 -18.953125 C 17.8125 -18.421875 17.976562 -17.957031 18.3125 -17.5625 C 18.65625 -17.164062 19.101562 -16.96875 19.65625 -16.96875 C 20 -16.96875 20.203125 -17.019531 20.265625 -17.125 C 20.328125 -17.238281 20.445312 -17.296875 20.625 -17.296875 C 20.875 -17.296875 21.050781 -17.082031 21.15625 -16.65625 C 21.269531 -16.226562 21.328125 -15.851562 21.328125 -15.53125 C 21.328125 -14.75 21.09375 -14.003906 20.625 -13.296875 C 20.15625 -12.597656 19.53125 -12.03125 18.75 -11.59375 C 17.96875 -11.15625 17.128906 -10.9375 16.234375 -10.9375 C 15.390625 -10.9375 14.601562 -11.144531 13.875 -11.5625 C 13.144531 -11.976562 12.5625 -12.53125 12.125 -13.21875 C 11.695312 -13.914062 11.484375 -14.6875 11.484375 -15.53125 C 11.484375 -16.488281 11.703125 -17.316406 12.140625 -18.015625 C 12.585938 -18.722656 13.132812 -19.332031 13.78125 -19.84375 C 14.4375 -20.363281 15.09375 -20.800781 15.75 -21.15625 C 16.414062 -21.519531 16.972656 -21.84375 17.421875 -22.125 C 17.867188 -22.414062 18.09375 -22.691406 18.09375 -22.953125 C 18.09375 -23.359375 17.796875 -23.613281 17.203125 -23.71875 C 16.109375 -23.894531 15.132812 -24.179688 14.28125 -24.578125 C 13.4375 -24.984375 12.640625 -25.40625 11.890625 -25.84375 C 11.148438 -26.28125 10.394531 -26.648438 9.625 -26.953125 C 8.851562 -27.265625 8.007812 -27.421875 7.09375 -27.421875 C 6.5625 -27.421875 6.125 -27.273438 5.78125 -26.984375 C 5.445312 -26.703125 5.179688 -26.347656 4.984375 -25.921875 C 4.796875 -25.492188 4.660156 -25.066406 4.578125 -24.640625 C 4.503906 -24.222656 4.46875 -23.863281 4.46875 -23.5625 C 4.46875 -22.238281 4.632812 -20.828125 4.96875 -19.328125 C 5.300781 -17.828125 5.785156 -16.347656 6.421875 -14.890625 C 7.066406 -13.441406 7.863281 -12.117188 8.8125 -10.921875 C 9.757812 -9.734375 10.851562 -8.78125 12.09375 -8.0625 C 13.34375 -7.351562 14.734375 -7 16.265625 -7 C 17.398438 -7 18.328125 -7.15625 19.046875 -7.46875 C 19.773438 -7.789062 20.367188 -8.1875 20.828125 -8.65625 C 21.285156 -9.125 21.65625 -9.59375 21.9375 -10.0625 C 22.226562 -10.539062 22.492188 -10.9375 22.734375 -11.25 C 22.984375 -11.570312 23.269531 -11.734375 23.59375 -11.734375 C 23.78125 -11.734375 23.957031 -11.628906 24.125 -11.421875 C 24.300781 -11.222656 24.390625 -10.75 24.390625 -10 C 24.390625 -8.976562 24.15625 -7.859375 23.6875 -6.640625 C 23.21875 -5.429688 22.53125 -4.285156 21.625 -3.203125 C 20.71875 -2.128906 19.601562 -1.242188 18.28125 -0.546875 C 16.957031 0.140625 15.445312 0.484375 13.75 0.484375 Z M 13.75 0.484375 "/></g></g></g><g fill="#fafafa" fill-opacity="1"><g transform="translate(273.413543, 186.367562)"><g><path d="M 0.796875 -15.984375 C 0.796875 -18.453125 1.09375 -20.691406 1.6875 -22.703125 C 2.289062 -24.722656 3.144531 -26.460938 4.25 -27.921875 C 5.363281 -29.378906 6.691406 -30.5 8.234375 -31.28125 C 9.773438 -32.0625 11.492188 -32.453125 13.390625 -32.453125 C 15.265625 -32.453125 16.972656 -32.0625 18.515625 -31.28125 C 20.066406 -30.5 21.394531 -29.378906 22.5 -27.921875 C 23.613281 -26.460938 24.46875 -24.722656 25.0625 -22.703125 C 25.65625 -20.691406 25.953125 -18.453125 25.953125 -15.984375 C 25.953125 -13.515625 25.65625 -11.269531 25.0625 -9.25 C 24.46875 -7.238281 23.613281 -5.503906 22.5 -4.046875 C 21.394531 -2.585938 20.066406 -1.46875 18.515625 -0.6875 C 16.972656 0.09375 15.265625 0.484375 13.390625 0.484375 C 11.492188 0.484375 9.773438 0.09375 8.234375 -0.6875 C 6.691406 -1.46875 5.363281 -2.585938 4.25 -4.046875 C 3.144531 -5.503906 2.289062 -7.238281 1.6875 -9.25 C 1.09375 -11.269531 0.796875 -13.515625 0.796875 -15.984375 Z M 10.8125 -30.28125 C 10.0625 -30.28125 9.472656 -29.878906 9.046875 -29.078125 C 8.617188 -28.273438 8.328125 -27.191406 8.171875 -25.828125 C 8.023438 -24.460938 8 -22.929688 8.09375 -21.234375 C 8.195312 -19.546875 8.394531 -17.796875 8.6875 -15.984375 C 8.988281 -14.171875 9.367188 -12.414062 9.828125 -10.71875 C 10.285156 -9.03125 10.804688 -7.503906 11.390625 -6.140625 C 11.984375 -4.773438 12.613281 -3.691406 13.28125 -2.890625 C 13.957031 -2.085938 14.644531 -1.6875 15.34375 -1.6875 C 16.238281 -1.6875 16.953125 -2.085938 17.484375 -2.890625 C 18.015625 -3.691406 18.382812 -4.773438 18.59375 -6.140625 C 18.8125 -7.503906 18.890625 -9.03125 18.828125 -10.71875 C 18.765625 -12.414062 18.582031 -14.171875 18.28125 -15.984375 C 17.988281 -17.796875 17.59375 -19.546875 17.09375 -21.234375 C 16.59375 -22.929688 16.015625 -24.460938 15.359375 -25.828125 C 14.710938 -27.191406 14.003906 -28.273438 13.234375 -29.078125 C 12.460938 -29.878906 11.65625 -30.28125 10.8125 -30.28125 Z M 10.8125 -30.28125 "/></g></g></g><g fill="#fafafa" fill-opacity="1"><g transform="translate(300.161623, 186.367562)"><g><path d="M 0.3125 0 C 0.738281 -0.425781 1.03125 -0.929688 1.1875 -1.515625 C 1.351562 -2.097656 1.4375 -2.847656 1.4375 -3.765625 L 1.4375 -28.203125 C 1.4375 -29.117188 1.351562 -29.867188 1.1875 -30.453125 C 1.03125 -31.035156 0.738281 -31.539062 0.3125 -31.96875 L 9.84375 -31.96875 C 10.394531 -31.96875 10.875 -31.863281 11.28125 -31.65625 C 11.6875 -31.457031 12.082031 -31.03125 12.46875 -30.375 C 12.851562 -29.726562 13.285156 -28.769531 13.765625 -27.5 C 14.242188 -26.238281 14.84375 -24.53125 15.5625 -22.375 L 18.578125 -13.421875 C 18.867188 -12.546875 19.160156 -11.675781 19.453125 -10.8125 C 19.742188 -9.957031 20.03125 -9.171875 20.3125 -8.453125 C 20.601562 -7.742188 20.894531 -7.175781 21.1875 -6.75 C 21.488281 -6.320312 21.78125 -6.109375 22.0625 -6.109375 C 22.425781 -6.109375 22.6875 -6.289062 22.84375 -6.65625 C 23 -7.03125 23.101562 -7.488281 23.15625 -8.03125 C 23.207031 -8.582031 23.234375 -9.101562 23.234375 -9.59375 C 23.234375 -11.632812 22.988281 -13.472656 22.5 -15.109375 C 22.007812 -16.753906 21.40625 -18.242188 20.6875 -19.578125 C 19.976562 -20.910156 19.257812 -22.125 18.53125 -23.21875 C 17.8125 -24.320312 17.207031 -25.359375 16.71875 -26.328125 C 16.226562 -27.296875 15.984375 -28.238281 15.984375 -29.15625 C 15.984375 -30.132812 16.335938 -30.847656 17.046875 -31.296875 C 17.765625 -31.742188 18.59375 -31.96875 19.53125 -31.96875 L 26.21875 -31.96875 C 25.789062 -31.539062 25.492188 -31.035156 25.328125 -30.453125 C 25.171875 -29.867188 25.09375 -29.117188 25.09375 -28.203125 L 25.09375 -3.765625 C 25.09375 -2.847656 25.171875 -2.097656 25.328125 -1.515625 C 25.492188 -0.929688 25.789062 -0.425781 26.21875 0 L 17.84375 0 C 16.925781 0 16.132812 -0.226562 15.46875 -0.6875 C 14.8125 -1.144531 14.253906 -1.765625 13.796875 -2.546875 C 13.335938 -3.335938 12.925781 -4.226562 12.5625 -5.21875 C 12.195312 -6.21875 11.835938 -7.257812 11.484375 -8.34375 C 11.265625 -8.976562 10.992188 -9.757812 10.671875 -10.6875 C 10.359375 -11.613281 10.023438 -12.582031 9.671875 -13.59375 C 9.316406 -14.613281 8.984375 -15.5625 8.671875 -16.4375 C 8.367188 -17.3125 8.128906 -18.015625 7.953125 -18.546875 C 7.660156 -19.421875 7.367188 -20.285156 7.078125 -21.140625 C 6.796875 -22.003906 6.507812 -22.789062 6.21875 -23.5 C 5.925781 -24.21875 5.632812 -24.789062 5.34375 -25.21875 C 5.0625 -25.644531 4.769531 -25.859375 4.46875 -25.859375 C 4.132812 -25.859375 3.878906 -25.671875 3.703125 -25.296875 C 3.535156 -24.929688 3.425781 -24.472656 3.375 -23.921875 C 3.320312 -23.378906 3.296875 -22.863281 3.296875 -22.375 C 3.296875 -20.332031 3.539062 -18.488281 4.03125 -16.84375 C 4.519531 -15.207031 5.125 -13.722656 5.84375 -12.390625 C 6.570312 -11.054688 7.289062 -9.835938 8 -8.734375 C 8.71875 -7.640625 9.320312 -6.609375 9.8125 -5.640625 C 10.300781 -4.671875 10.546875 -3.726562 10.546875 -2.8125 C 10.546875 -1.832031 10.1875 -1.117188 9.46875 -0.671875 C 8.757812 -0.222656 7.9375 0 7 0 Z M 0.3125 0 "/></g></g></g><g fill="#ff5757" fill-opacity="1"><g transform="translate(96.95398, 225.54994)"><g><path d="M 39.6875 -47.109375 C 42.195312 -47.367188 44.335938 -47.128906 46.109375 -46.390625 C 47.890625 -45.660156 49.210938 -44.507812 50.078125 -42.9375 C 50.953125 -41.363281 51.296875 -39.425781 51.109375 -37.125 C 50.910156 -34.332031 50.332031 -31.507812 49.375 -28.65625 C 48.414062 -25.8125 47.148438 -23.003906 45.578125 -20.234375 C 44.003906 -17.472656 42.1875 -14.816406 40.125 -12.265625 C 38.0625 -9.710938 35.816406 -7.34375 33.390625 -5.15625 C 30.972656 -2.976562 28.441406 -1.046875 25.796875 0.640625 C 23.160156 2.328125 20.472656 3.695312 17.734375 4.75 C 14.992188 5.8125 12.28125 6.476562 9.59375 6.75 C 7.6875 6.9375 6.046875 6.835938 4.671875 6.453125 C 3.304688 6.066406 2.28125 5.421875 1.59375 4.515625 C 0.914062 3.609375 0.628906 2.5 0.734375 1.1875 C 0.828125 0.0195312 1.21875 -1.207031 1.90625 -2.5 C 2.59375 -3.800781 3.539062 -5.101562 4.75 -6.40625 C 5.96875 -7.707031 7.378906 -8.953125 8.984375 -10.140625 C 10.585938 -11.335938 12.34375 -12.421875 14.25 -13.390625 C 14.320312 -13.441406 14.382812 -13.492188 14.4375 -13.546875 C 15.738281 -15.671875 17.128906 -17.875 18.609375 -20.15625 C 20.085938 -22.445312 21.601562 -24.71875 23.15625 -26.96875 C 24.71875 -29.226562 26.257812 -31.367188 27.78125 -33.390625 C 29.3125 -35.410156 30.765625 -37.207031 32.140625 -38.78125 C 32.304688 -38.96875 32.53125 -39.078125 32.8125 -39.109375 C 33.09375 -39.140625 33.335938 -39.066406 33.546875 -38.890625 C 33.765625 -38.722656 33.882812 -38.503906 33.90625 -38.234375 C 33.945312 -37.910156 33.867188 -37.65625 33.671875 -37.46875 C 32.453125 -36.082031 31.164062 -34.5 29.8125 -32.71875 C 28.457031 -30.9375 27.078125 -29.050781 25.671875 -27.0625 C 24.273438 -25.082031 22.90625 -23.066406 21.5625 -21.015625 C 20.21875 -18.972656 18.921875 -16.972656 17.671875 -15.015625 C 19.671875 -15.828125 21.753906 -16.492188 23.921875 -17.015625 C 26.085938 -17.546875 28.289062 -17.925781 30.53125 -18.15625 C 31.914062 -18.289062 33.316406 -18.367188 34.734375 -18.390625 C 36.160156 -18.410156 37.578125 -18.378906 38.984375 -18.296875 C 39.242188 -18.285156 39.460938 -18.195312 39.640625 -18.03125 C 39.816406 -17.875 39.921875 -17.664062 39.953125 -17.40625 C 39.972656 -17.125 39.894531 -16.875 39.71875 -16.65625 C 39.550781 -16.4375 39.328125 -16.3125 39.046875 -16.28125 L 38.875 -16.296875 C 36.09375 -16.472656 33.378906 -16.425781 30.734375 -16.15625 C 25.378906 -15.613281 20.453125 -14.265625 15.953125 -12.109375 C 15.867188 -12.066406 15.8125 -12.015625 15.78125 -11.953125 C 14.71875 -10.191406 13.738281 -8.546875 12.84375 -7.015625 C 11.945312 -5.492188 11.191406 -4.160156 10.578125 -3.015625 C 9.972656 -1.878906 9.554688 -1.035156 9.328125 -0.484375 C 9.171875 -0.0976562 8.890625 0.113281 8.484375 0.15625 C 8.203125 0.175781 7.957031 0.101562 7.75 -0.0625 C 7.539062 -0.238281 7.421875 -0.46875 7.390625 -0.75 C 7.367188 -0.957031 7.398438 -1.117188 7.484375 -1.234375 C 7.734375 -1.921875 8.273438 -3.019531 9.109375 -4.53125 C 9.941406 -6.039062 11.007812 -7.890625 12.3125 -10.078125 C 10.46875 -8.941406 8.835938 -7.707031 7.421875 -6.375 C 6.003906 -5.050781 4.882812 -3.71875 4.0625 -2.375 C 3.25 -1.03125 2.796875 0.203125 2.703125 1.328125 C 2.617188 2.628906 3.15625 3.578125 4.3125 4.171875 C 5.476562 4.773438 7.171875 4.96875 9.390625 4.75 C 11.953125 4.488281 14.53125 3.851562 17.125 2.84375 C 19.726562 1.832031 22.296875 0.515625 24.828125 -1.109375 C 27.367188 -2.742188 29.789062 -4.613281 32.09375 -6.71875 C 34.40625 -8.820312 36.550781 -11.09375 38.53125 -13.53125 C 40.519531 -15.96875 42.269531 -18.507812 43.78125 -21.15625 C 45.300781 -23.800781 46.523438 -26.484375 47.453125 -29.203125 C 48.378906 -31.929688 48.9375 -34.617188 49.125 -37.265625 C 49.34375 -40.066406 48.644531 -42.15625 47.03125 -43.53125 C 45.414062 -44.90625 43.035156 -45.429688 39.890625 -45.109375 C 37.390625 -44.859375 34.910156 -44.28125 32.453125 -43.375 C 30.003906 -42.46875 27.628906 -41.320312 25.328125 -39.9375 C 23.035156 -38.550781 20.847656 -37.015625 18.765625 -35.328125 C 16.691406 -33.648438 14.773438 -31.898438 13.015625 -30.078125 C 11.253906 -28.253906 9.691406 -26.4375 8.328125 -24.625 C 6.960938 -22.820312 5.847656 -21.117188 4.984375 -19.515625 C 4.804688 -19.203125 4.546875 -19.03125 4.203125 -19 C 3.921875 -18.96875 3.671875 -19.039062 3.453125 -19.21875 C 3.234375 -19.394531 3.113281 -19.625 3.09375 -19.90625 C 3.070312 -20.113281 3.109375 -20.3125 3.203125 -20.5 C 4.109375 -22.144531 5.265625 -23.898438 6.671875 -25.765625 C 8.078125 -27.628906 9.695312 -29.507812 11.53125 -31.40625 C 13.375 -33.300781 15.382812 -35.128906 17.5625 -36.890625 C 19.738281 -38.660156 22.035156 -40.265625 24.453125 -41.703125 C 26.867188 -43.140625 29.359375 -44.332031 31.921875 -45.28125 C 34.484375 -46.238281 37.070312 -46.847656 39.6875 -47.109375 Z M 39.6875 -47.109375 "/></g></g></g><g fill="#ff5757" fill-opacity="1"><g transform="translate(149.309975, 220.263778)"><g><path d="M 27.53125 -14.15625 C 27.8125 -14.1875 28.054688 -14.117188 28.265625 -13.953125 C 28.472656 -13.785156 28.59375 -13.5625 28.625 -13.28125 C 28.65625 -12.925781 28.546875 -12.640625 28.296875 -12.421875 C 26.640625 -10.953125 24.875 -9.578125 23 -8.296875 C 21.132812 -7.023438 19.257812 -5.878906 17.375 -4.859375 C 15.5 -3.847656 13.707031 -2.976562 12 -2.25 C 10.300781 -1.53125 8.78125 -0.957031 7.4375 -0.53125 C 6.09375 -0.113281 5.035156 0.132812 4.265625 0.21875 C 2.296875 0.414062 0.734375 0.207031 -0.421875 -0.40625 C -1.578125 -1.019531 -2.222656 -1.984375 -2.359375 -3.296875 C -2.441406 -4.160156 -2.304688 -5.109375 -1.953125 -6.140625 C -1.597656 -7.171875 -1.085938 -8.191406 -0.421875 -9.203125 C 0.234375 -10.222656 0.992188 -11.160156 1.859375 -12.015625 C 2.722656 -12.878906 3.617188 -13.585938 4.546875 -14.140625 C 5.472656 -14.691406 6.363281 -15.007812 7.21875 -15.09375 C 8.007812 -15.175781 8.660156 -15.035156 9.171875 -14.671875 C 9.679688 -14.316406 9.96875 -13.804688 10.03125 -13.140625 C 10.082031 -12.671875 9.96875 -12.191406 9.6875 -11.703125 C 9.414062 -11.222656 9.023438 -10.765625 8.515625 -10.328125 C 8.003906 -9.890625 7.441406 -9.519531 6.828125 -9.21875 C 6.210938 -8.925781 5.582031 -8.75 4.9375 -8.6875 C 3.664062 -8.5625 2.617188 -8.625 1.796875 -8.875 C 1.054688 -7.882812 0.492188 -6.910156 0.109375 -5.953125 C -0.265625 -5.003906 -0.421875 -4.1875 -0.359375 -3.5 C -0.210938 -2.082031 1.257812 -1.515625 4.0625 -1.796875 C 4.769531 -1.867188 5.757812 -2.097656 7.03125 -2.484375 C 8.3125 -2.878906 9.753906 -3.425781 11.359375 -4.125 C 12.972656 -4.832031 14.679688 -5.671875 16.484375 -6.640625 C 18.296875 -7.617188 20.097656 -8.71875 21.890625 -9.9375 C 23.679688 -11.15625 25.367188 -12.476562 26.953125 -13.90625 C 27.097656 -14.050781 27.289062 -14.132812 27.53125 -14.15625 Z M 8.03125 -12.9375 C 8.03125 -13.007812 7.992188 -13.0625 7.921875 -13.09375 C 7.859375 -13.125 7.691406 -13.125 7.421875 -13.09375 C 6.847656 -13.03125 6.203125 -12.785156 5.484375 -12.359375 C 4.765625 -11.929688 4.039062 -11.359375 3.3125 -10.640625 C 3.695312 -10.617188 4.171875 -10.632812 4.734375 -10.6875 C 5.441406 -10.757812 6.039062 -10.9375 6.53125 -11.21875 C 7.019531 -11.5 7.394531 -11.800781 7.65625 -12.125 C 7.925781 -12.457031 8.050781 -12.726562 8.03125 -12.9375 Z M 8.03125 -12.9375 "/></g></g></g><g fill="#ff5757" fill-opacity="1"><g transform="translate(175.14078, 217.655752)"><g><path d="M 55.3125 -68.1875 C 55.382812 -67.375 55.0625 -66.21875 54.34375 -64.71875 C 53.625 -63.226562 52.566406 -61.484375 51.171875 -59.484375 C 49.785156 -57.484375 48.132812 -55.289062 46.21875 -52.90625 C 44.3125 -50.53125 42.207031 -48.039062 39.90625 -45.4375 C 37.613281 -42.832031 35.1875 -40.179688 32.625 -37.484375 C 30.070312 -34.785156 27.445312 -32.101562 24.75 -29.4375 C 22.0625 -26.78125 19.382812 -24.21875 16.71875 -21.75 C 14.050781 -19.28125 11.453125 -16.960938 8.921875 -14.796875 C 6.398438 -12.640625 4.019531 -10.722656 1.78125 -9.046875 C -0.664062 -4.003906 -1.769531 -0.296875 -1.53125 2.078125 C -1.445312 2.847656 -1.222656 3.347656 -0.859375 3.578125 C -0.492188 3.816406 0.179688 3.882812 1.171875 3.78125 C 1.960938 3.695312 3.054688 3.332031 4.453125 2.6875 C 5.847656 2.039062 7.457031 1.164062 9.28125 0.0625 C 11.101562 -1.03125 13.070312 -2.3125 15.1875 -3.78125 C 17.3125 -5.25 19.5 -6.847656 21.75 -8.578125 C 24 -10.304688 26.226562 -12.113281 28.4375 -14 C 28.5625 -14.144531 28.75 -14.234375 29 -14.265625 C 29.28125 -14.285156 29.523438 -14.207031 29.734375 -14.03125 C 29.953125 -13.863281 30.078125 -13.644531 30.109375 -13.375 C 30.140625 -13.019531 30.015625 -12.722656 29.734375 -12.484375 C 28.085938 -11.085938 26.359375 -9.675781 24.546875 -8.25 C 22.734375 -6.820312 20.90625 -5.441406 19.0625 -4.109375 C 17.226562 -2.773438 15.429688 -1.523438 13.671875 -0.359375 C 11.921875 0.796875 10.269531 1.816406 8.71875 2.703125 C 7.164062 3.585938 5.757812 4.300781 4.5 4.84375 C 3.238281 5.382812 2.195312 5.695312 1.375 5.78125 C -0.144531 5.9375 -1.304688 5.734375 -2.109375 5.171875 C -2.910156 4.609375 -3.382812 3.644531 -3.53125 2.28125 C -3.664062 0.9375 -3.429688 -0.726562 -2.828125 -2.71875 C -2.234375 -4.71875 -1.332031 -6.953125 -0.125 -9.421875 C 1.070312 -11.898438 2.507812 -14.535156 4.1875 -17.328125 C 5.875 -20.128906 7.734375 -23.019531 9.765625 -26 C 11.804688 -28.976562 13.953125 -31.96875 16.203125 -34.96875 C 18.453125 -37.96875 20.757812 -40.910156 23.125 -43.796875 C 25.488281 -46.679688 27.832031 -49.4375 30.15625 -52.0625 C 32.476562 -54.6875 34.734375 -57.113281 36.921875 -59.34375 C 39.117188 -61.570312 41.164062 -63.515625 43.0625 -65.171875 C 44.96875 -66.828125 46.671875 -68.140625 48.171875 -69.109375 C 49.671875 -70.078125 50.90625 -70.609375 51.875 -70.703125 C 52.84375 -70.804688 53.632812 -70.632812 54.25 -70.1875 C 54.863281 -69.738281 55.21875 -69.070312 55.3125 -68.1875 Z M 52.078125 -68.703125 C 51.253906 -68.628906 50.195312 -68.175781 48.90625 -67.34375 C 47.613281 -66.519531 46.132812 -65.382812 44.46875 -63.9375 C 42.800781 -62.5 41.003906 -60.8125 39.078125 -58.875 C 37.160156 -56.945312 35.160156 -54.828125 33.078125 -52.515625 C 30.992188 -50.210938 28.878906 -47.773438 26.734375 -45.203125 C 24.597656 -42.628906 22.472656 -39.988281 20.359375 -37.28125 C 18.242188 -34.570312 16.207031 -31.84375 14.25 -29.09375 C 12.289062 -26.351562 10.453125 -23.660156 8.734375 -21.015625 C 7.015625 -18.378906 5.472656 -15.851562 4.109375 -13.4375 C 6.429688 -15.300781 8.828125 -17.328125 11.296875 -19.515625 C 13.765625 -21.710938 16.257812 -24.015625 18.78125 -26.421875 C 21.3125 -28.828125 23.796875 -31.273438 26.234375 -33.765625 C 28.679688 -36.265625 31.0625 -38.75 33.375 -41.21875 C 35.6875 -43.6875 37.859375 -46.085938 39.890625 -48.421875 C 41.921875 -50.753906 43.769531 -52.960938 45.4375 -55.046875 C 47.113281 -57.140625 48.546875 -59.039062 49.734375 -60.75 C 50.921875 -62.457031 51.828125 -63.929688 52.453125 -65.171875 C 53.085938 -66.421875 53.375 -67.359375 53.3125 -67.984375 C 53.269531 -68.304688 53.164062 -68.519531 53 -68.625 C 52.832031 -68.726562 52.523438 -68.753906 52.078125 -68.703125 Z M 52.078125 -68.703125 "/></g></g></g><g fill="#fafafa" fill-opacity="1"><g transform="translate(137.701746, 250.323718)"><g><path d="M 10.578125 -11.59375 C 11.109375 -11.59375 11.535156 -11.609375 11.859375 -11.640625 L 11.859375 -11.265625 C 11.503906 -11.171875 11.21875 -10.992188 11 -10.734375 C 10.78125 -10.472656 10.53125 -10.023438 10.25 -9.390625 L 6.046875 0.09375 L 5.75 0.09375 L 1.265625 -10.03125 C 0.921875 -10.820312 0.476562 -11.234375 -0.0625 -11.265625 L -0.0625 -11.640625 C 0.46875 -11.609375 1.15625 -11.59375 2 -11.59375 C 3.09375 -11.59375 3.90625 -11.609375 4.4375 -11.640625 L 4.4375 -11.265625 C 3.96875 -11.234375 3.617188 -11.164062 3.390625 -11.0625 C 3.171875 -10.96875 3.0625 -10.800781 3.0625 -10.5625 C 3.0625 -10.351562 3.148438 -10.050781 3.328125 -9.65625 L 6.625 -2.21875 L 9.484375 -8.578125 C 9.804688 -9.265625 9.96875 -9.804688 9.96875 -10.203125 C 9.96875 -10.566406 9.84375 -10.828125 9.59375 -10.984375 C 9.34375 -11.140625 8.960938 -11.234375 8.453125 -11.265625 L 8.453125 -11.640625 C 8.828125 -11.609375 9.535156 -11.59375 10.578125 -11.59375 Z M 10.578125 -11.59375 "/></g></g></g><g fill="#fafafa" fill-opacity="1"><g transform="translate(149.121017, 250.323718)"><g><path d="M 5.6875 -11.265625 C 5.226562 -11.234375 4.894531 -11.179688 4.6875 -11.109375 C 4.476562 -11.035156 4.332031 -10.890625 4.25 -10.671875 C 4.175781 -10.453125 4.140625 -10.097656 4.140625 -9.609375 L 4.140625 -2.03125 C 4.140625 -1.539062 4.175781 -1.1875 4.25 -0.96875 C 4.332031 -0.757812 4.476562 -0.613281 4.6875 -0.53125 C 4.894531 -0.457031 5.226562 -0.410156 5.6875 -0.390625 L 5.6875 0 C 5.101562 -0.0390625 4.289062 -0.0625 3.25 -0.0625 C 2.15625 -0.0625 1.335938 -0.0390625 0.796875 0 L 0.796875 -0.390625 C 1.265625 -0.410156 1.601562 -0.457031 1.8125 -0.53125 C 2.019531 -0.613281 2.160156 -0.757812 2.234375 -0.96875 C 2.316406 -1.1875 2.359375 -1.539062 2.359375 -2.03125 L 2.359375 -9.609375 C 2.359375 -10.097656 2.316406 -10.453125 2.234375 -10.671875 C 2.160156 -10.890625 2.019531 -11.035156 1.8125 -11.109375 C 1.601562 -11.179688 1.265625 -11.234375 0.796875 -11.265625 L 0.796875 -11.640625 C 1.335938 -11.609375 2.15625 -11.59375 3.25 -11.59375 C 4.269531 -11.59375 5.082031 -11.609375 5.6875 -11.640625 Z M 5.6875 -11.265625 "/></g></g></g><g fill="#fafafa" fill-opacity="1"><g transform="translate(155.232943, 250.323718)"><g><path d="M 12.453125 -11.265625 C 12.003906 -11.234375 11.671875 -11.164062 11.453125 -11.0625 C 11.234375 -10.957031 11.085938 -10.78125 11.015625 -10.53125 C 10.941406 -10.28125 10.90625 -9.910156 10.90625 -9.421875 L 10.90625 0.09375 L 10.453125 0.09375 L 2.796875 -10.515625 L 2.796875 -2.21875 C 2.796875 -1.71875 2.835938 -1.347656 2.921875 -1.109375 C 3.003906 -0.867188 3.164062 -0.691406 3.40625 -0.578125 C 3.65625 -0.472656 4.035156 -0.410156 4.546875 -0.390625 L 4.546875 0 C 4.078125 -0.0390625 3.425781 -0.0625 2.59375 -0.0625 C 1.820312 -0.0625 1.222656 -0.0390625 0.796875 0 L 0.796875 -0.390625 C 1.242188 -0.410156 1.578125 -0.472656 1.796875 -0.578125 C 2.015625 -0.691406 2.160156 -0.875 2.234375 -1.125 C 2.316406 -1.375 2.359375 -1.738281 2.359375 -2.21875 L 2.359375 -9.609375 C 2.359375 -10.097656 2.316406 -10.453125 2.234375 -10.671875 C 2.160156 -10.890625 2.019531 -11.035156 1.8125 -11.109375 C 1.601562 -11.179688 1.265625 -11.234375 0.796875 -11.265625 L 0.796875 -11.640625 C 1.222656 -11.609375 1.820312 -11.59375 2.59375 -11.59375 C 3.28125 -11.59375 3.863281 -11.609375 4.34375 -11.640625 L 10.453125 -3.140625 L 10.453125 -9.421875 C 10.453125 -9.921875 10.410156 -10.289062 10.328125 -10.53125 C 10.242188 -10.78125 10.082031 -10.957031 9.84375 -11.0625 C 9.601562 -11.164062 9.226562 -11.234375 8.71875 -11.265625 L 8.71875 -11.640625 C 9.175781 -11.609375 9.828125 -11.59375 10.671875 -11.59375 C 11.429688 -11.59375 12.023438 -11.609375 12.453125 -11.640625 Z M 12.453125 -11.265625 "/></g></g></g><g fill="#fafafa" fill-opacity="1"><g transform="translate(167.974271, 250.323718)"><g><path d="M 6.921875 -11.921875 C 8.085938 -11.921875 9.113281 -11.6875 10 -11.21875 C 10.894531 -10.75 11.582031 -10.0625 12.0625 -9.15625 C 12.550781 -8.257812 12.796875 -7.1875 12.796875 -5.9375 C 12.796875 -4.707031 12.539062 -3.625 12.03125 -2.6875 C 11.53125 -1.75 10.832031 -1.019531 9.9375 -0.5 C 9.039062 0.0078125 8.023438 0.265625 6.890625 0.265625 C 5.722656 0.265625 4.691406 0.0351562 3.796875 -0.421875 C 2.910156 -0.890625 2.222656 -1.570312 1.734375 -2.46875 C 1.253906 -3.375 1.015625 -4.453125 1.015625 -5.703125 C 1.015625 -6.929688 1.265625 -8.015625 1.765625 -8.953125 C 2.273438 -9.890625 2.972656 -10.617188 3.859375 -11.140625 C 4.753906 -11.660156 5.773438 -11.921875 6.921875 -11.921875 Z M 6.84375 -11.578125 C 6.0625 -11.578125 5.375 -11.328125 4.78125 -10.828125 C 4.1875 -10.335938 3.726562 -9.65625 3.40625 -8.78125 C 3.09375 -7.90625 2.9375 -6.90625 2.9375 -5.78125 C 2.9375 -4.644531 3.113281 -3.640625 3.46875 -2.765625 C 3.820312 -1.898438 4.304688 -1.234375 4.921875 -0.765625 C 5.535156 -0.304688 6.21875 -0.078125 6.96875 -0.078125 C 7.75 -0.078125 8.4375 -0.320312 9.03125 -0.8125 C 9.625 -1.300781 10.078125 -1.984375 10.390625 -2.859375 C 10.710938 -3.734375 10.875 -4.734375 10.875 -5.859375 C 10.875 -6.992188 10.695312 -7.992188 10.34375 -8.859375 C 9.988281 -9.734375 9.503906 -10.40625 8.890625 -10.875 C 8.273438 -11.34375 7.59375 -11.578125 6.84375 -11.578125 Z M 6.84375 -11.578125 "/></g></g></g></svg>